<svg width="42" height="40" viewBox="0 0 42 40" fill="none" xmlns="http://www.w3.org/2000/svg">
<ellipse cx="21.1668" cy="20" rx="20.6111" ry="20" fill="#FE7C6E"/>
<path d="M26.663 26V24.6667C26.663 23.9594 26.3735 23.2811 25.8581 22.781C25.3427 22.281 24.6437 22 23.9149 22H18.4186C17.6897 22 16.9907 22.281 16.4753 22.781C15.9599 23.2811 15.6704 23.9594 15.6704 24.6667V26" stroke="white" stroke-linecap="round" stroke-linejoin="round"/>
<path d="M21.1668 19.3333C22.6846 19.3333 23.915 18.1394 23.915 16.6667C23.915 15.1939 22.6846 14 21.1668 14C19.6491 14 18.4187 15.1939 18.4187 16.6667C18.4187 18.1394 19.6491 19.3333 21.1668 19.3333Z" stroke="white" stroke-linecap="round" stroke-linejoin="round"/>
</svg>
