<svg width="18" height="18" viewBox="0 0 18 18" fill="none" xmlns="http://www.w3.org/2000/svg">
<rect width="18" height="18" rx="9" fill="#FE7C6E"/>
<path d="M6.7406 7.67346H4.4906V5.42346" stroke="white" stroke-linecap="round" stroke-linejoin="round"/>
<path d="M11.9156 6.08436C11.5329 5.70112 11.0784 5.39708 10.5781 5.18964C10.0778 4.9822 9.54157 4.87543 8.99998 4.87543C8.45838 4.87543 7.9221 4.9822 7.42181 5.18964C6.92152 5.39708 6.46704 5.70112 6.08435 6.08436L4.4906 7.67343" stroke="white" stroke-linecap="round" stroke-linejoin="round"/>
<path d="M11.2594 10.3265H13.5094V12.5765" stroke="white" stroke-linecap="round" stroke-linejoin="round"/>
<path d="M6.08435 11.9156C6.46704 12.2988 6.92152 12.6029 7.42181 12.8103C7.9221 13.0178 8.45838 13.1245 8.99998 13.1245C9.54157 13.1245 10.0778 13.0178 10.5781 12.8103C11.0784 12.6029 11.5329 12.2988 11.9156 11.9156L13.5093 10.3265" stroke="white" stroke-linecap="round" stroke-linejoin="round"/>
</svg>
